<svg xmlns="http://www.w3.org/2000/svg" viewBox="0 0 128 128">
  <path d="M61.7 30.2c-14.7 0-26.9 10.3-29.6 24.6-.6-.1-1.1-.1-1.6-.1-9.8 0-17.5 7.6-17.5 17.2C13 81.7 21 90 30.5 90H45c.6 0 1-.4 1-1s-.4-1-1-1H30.5c-8.4 0-15.5-7.4-15.6-16.2 0-8.5 6.8-15.2 15.5-15.2.6 0 1.4.1 2.2.2.5.1 1-.3 1.1-.8 2.2-13.8 13.8-23.8 27.8-23.8 9.7 0 18.6 5 23.8 13.2.3.3.7.5 1.1.4 1.7-.4 3.3-.6 4.8-.6 12 0 21.8 9.7 21.8 21.6 0 11.9-9.6 21.2-21.8 21.2H84c-.6 0-1 .4-1 1s.4 1 1 1h7.2c13.4 0 23.8-10.2 23.9-23.2 0-13-10.7-23.6-23.8-23.6-1.4 0-2.9.2-4.5.5-5.6-8.5-14.9-13.5-25.1-13.5zm2.9 28.5c-.6 0-1 .4-1 1v34.6L52 81.7c-.4-.4-1-.5-1.4-.1-.4.4-.5 1-.1 1.4l13.4 14.5c.2.2.4.3.7.3h.4c.206-.068.407-.283.516-.538L78.6 82.7c.3-.4.3-1-.1-1.4-.4-.3-1-.3-1.4.1L65.6 94.11V59.7c0-.6-.4-1-1-1z" fill="#fff"/>
</svg>
