<svg xmlns="http://www.w3.org/2000/svg" viewBox="0 0 128 128">
  <path d="M78.715 29.223c-.39-.005-.764.203-.914.578L47.9 97.3c-.2.5 0 1.1.5 1.3.1.1.3.1.4.1.3 0 .7-.2.9-.6l29.9-67.5c.2-.5 0-1.1-.5-1.3-.125-.05-.255-.076-.385-.077zM42.738 44.3c-.262-.024-.538.05-.738.2L18.4 63.2c-.3.2-.4.5-.4.8 0 .3.1.6.4.8L42 83.5c.2.1.4.2.6.2.2 0 .5-.1.8-.4.3-.4.2-1.1-.2-1.4L20.6 64l22.6-17.9c.5-.3.5-1 .2-1.4-.15-.25-.4-.374-.662-.4zm42.524.038c-.263.037-.512.16-.662.36-.3.4-.2 1.102.2 1.402L107.4 64 84.8 81.9c-.5.3-.5 1-.2 1.4.2.3.5.4.8.4.3 0 .5-.1.7-.2l23.5-18.7c.3-.2.4-.5.4-.8 0-.3-.2-.6-.4-.8L86 44.5c-.2-.15-.476-.2-.738-.162z" fill="#fff"/>
</svg>
