<svg xmlns="http://www.w3.org/2000/svg" viewBox="0 0 128 128">
  <path d="M64 18.3c-15.3 0-27.7 12.4-27.7 27.7 0 4.2 1.1 8.8 3 12.5l22.5 40.4c.3.6 1 1.5 2.2 1.5 1.2 0 1.9-.9 2.2-1.4l22.3-40.3c2.1-3.8 3.2-8.4 3.2-12.7 0-15.3-12.4-27.7-27.7-27.7zm-.1 2.1c14.2 0 25.7 11.5 25.7 25.7 0 3.9-1.1 8.2-2.9 11.7L64.3 98.1v.1s-.2.3-.3.3c-.2 0-.3-.3-.3-.3 0-.1-.1-.1-.1-.2L41.1 57.6c-1.7-3.4-2.8-7.8-2.8-11.6 0-14.2 11.4-25.6 25.6-25.6zm.1 4.7c-11.7 0-21.2 9.4-21.2 20.9 0 11.5 9.5 20.9 21.2 20.9S85.2 57.5 85.2 46c0-11.5-9.5-20.9-21.2-20.9zm0 1c11.1 0 20.2 8.9 20.2 19.9 0 11-9.1 19.9-20.2 19.9S43.8 57 43.8 46c0-11 9.1-19.9 20.2-19.9zm-8.7 63C44 90.6 36.8 94.5 36.8 99.2c0 5.9 11.9 10.6 27.1 10.6 15.2 0 27.2-4.7 27.2-10.6 0-4.6-7.1-8.5-18.2-10-.3-.1-.6.1-.6.4-.1.3.1.6.4.6 10.3 1.3 17.4 5 17.4 9 0 5.2-12 9.6-26.1 9.6-14.1 0-26.1-4.4-26.1-9.6 0-4 7.2-7.8 17.6-9.1.2-.1.4-.3.4-.6-.1-.2-.3-.4-.6-.4z" fill="#fff"/>
</svg>
