<svg xmlns="http://www.w3.org/2000/svg" viewBox="0 0 128 128">
  <path d="M99.053 19.697c-.11-.022-.23-.023-.354.002l-16.9 2.7c-.3 0-.5.1-.6.3-.2.1-.2.4-.2.6l13.3 84.3c0 .4.4.7.8.7h.2l16.9-2.7c.3 0 .5-.1.6-.3.2-.1.2-.4.2-.6L99.7 20.4c-.076-.375-.32-.637-.647-.703zM16 21.4c-.5 0-.9.3-.9.8v85.4c0 .4.4.8.9.8h17.1c.4 0 .8-.4.9-.9V22.2c0-.4-.4-.8-.9-.8H16zm21.9 0c-.5 0-.9.3-.9.8v85.4c0 .4.4.8.9.8H55c.4 0 .8-.4.9-.9V22.2c0-.4-.4-.8-.9-.8H37.9zm21.9 0c-.5 0-.9.3-.9.8v85.4c0 .4.4.8.9.8h17.1c.5 0 .8-.4.9-.9V22.2c0-.4-.4-.8-.9-.8H59.8zm38.2 0l13 82.6-15.1 2.4-13.1-82.6L98 21.4zm-81.1 1.7h15.4v83.6H16.9V23.1zm21.9 0h15.4v83.6H38.8V23.1zm21.9 0H76v83.6H60.7V23.1zM96.2 29l-9.4 1.5c-.3.1-.4.3-.4.6 0 .2.3.4.5.4l9.5-1.5c.3-.1.4-.3.4-.6-.1-.3-.3-.4-.6-.4zm-76.4 1.2c-.3 0-.5.2-.5.5s.2.5.5.5h9.5c.2 0 .5-.2.5-.5s-.2-.5-.5-.5h-9.5zm21.9 0c-.3 0-.5.2-.5.5s.2.5.5.5h9.5c.3 0 .5-.2.5-.5s-.2-.5-.5-.5h-9.5zm21.9 0c-.3 0-.5.2-.5.5s.2.5.5.5h9.5c.3 0 .5-.2.5-.5s-.2-.5-.5-.5h-9.5zm33.3 3.4l-9.4 1.5c-.3.1-.4.3-.4.6 0 .2.3.4.5.4l9.5-1.5c.3-.1.4-.3.4-.6-.1-.3-.3-.4-.6-.4zM19.8 35c-.3 0-.5.2-.5.5s.2.5.5.5h9.5c.2 0 .5-.2.5-.5s-.2-.5-.5-.5h-9.5zm21.9 0c-.3 0-.5.2-.5.5s.2.5.5.5h9.5c.3 0 .5-.2.5-.5s-.2-.5-.5-.5h-9.5zm21.9 0c-.3 0-.5.2-.5.5s.2.5.5.5h9.5c.3 0 .5-.2.5-.5s-.2-.5-.5-.5h-9.5zm34.1 3.3l-9.4 1.5c-.3.1-.4.3-.4.6 0 .2.3.4.5.4l9.5-1.5c.3-.1.4-.3.4-.6-.1-.3-.3-.4-.6-.4zm-77.9 1.4c-.3 0-.5.2-.5.5s.2.5.5.5h9.5c.2 0 .5-.2.5-.5s-.2-.5-.5-.5h-9.5zm21.9 0c-.3 0-.5.2-.5.5s.2.5.5.5h9.5c.3 0 .5-.2.5-.5s-.2-.5-.5-.5h-9.5zm21.9 0c-.3 0-.5.2-.5.5s.2.5.5.5h9.5c.3 0 .5-.2.5-.5s-.2-.5-.5-.5h-9.5zM98.4 43L89 44.5c-.3.1-.4.3-.4.6 0 .2.3.4.5.4l9.5-1.5c.3-.1.4-.3.4-.6-.1-.3-.3-.4-.6-.4zm-78.6 1.5c-.3 0-.5.2-.5.5s.2.5.5.5h9.5c.2 0 .5-.2.5-.5s-.2-.5-.5-.5h-9.5zm21.9 0c-.3 0-.5.2-.5.5s.2.5.5.5h9.5c.3 0 .5-.2.5-.5s-.2-.5-.5-.5h-9.5zm21.9 0c-.3 0-.5.2-.5.5s.2.5.5.5h9.5c.3 0 .5-.2.5-.5s-.2-.5-.5-.5h-9.5zm38.47 46.027c-.35-.012-.707.01-1.07.073-1.4.2-2.6 1-3.4 2.1-.8 1.1-1.1 2.5-.9 3.9.4 2.5 2.6 4.4 5.2 4.4h.8c1.4-.2 2.6-1 3.4-2.1.8-1.1 1.1-2.5.9-3.9-.438-2.537-2.482-4.385-4.93-4.473zM102 91.6c2 0 3.8 1.5 4.1 3.6.4 2.4-1.2 4.5-3.5 4.9-2.4.4-4.5-1.2-4.9-3.5-.1-1.2.1-2.3.8-3.2.7-.9 1.7-1.5 2.8-1.7.3-.1.5-.1.7-.1zm-77.5.4c-2.8 0-5.2 2.4-5.2 5.2 0 2.8 2.3 5.2 5.2 5.2 2.9 0 5.2-2.4 5.2-5.2 0-2.8-2.4-5.2-5.2-5.2zm21.9 0c-2.8 0-5.2 2.4-5.2 5.2 0 2.8 2.3 5.2 5.2 5.2 2.9 0 5.2-2.4 5.2-5.2 0-2.8-2.4-5.2-5.2-5.2zm22 0c-2.8 0-5.2 2.4-5.2 5.2 0 2.8 2.3 5.2 5.2 5.2 2.8 0 5.2-2.4 5.2-5.2 0-2.8-2.4-5.2-5.2-5.2zm-43.9.9c2.4 0 4.3 1.9 4.2 4.2 0 2.3-1.9 4.2-4.2 4.2-2.3 0-4.2-1.9-4.2-4.2 0-2.3 1.9-4.2 4.2-4.2zm21.9 0c2.4 0 4.3 1.9 4.2 4.2 0 2.3-1.9 4.2-4.2 4.2-2.3 0-4.2-1.9-4.2-4.2 0-2.3 1.9-4.2 4.2-4.2zm22 0c2.3 0 4.2 1.9 4.2 4.2 0 2.3-1.9 4.2-4.2 4.2-2.3 0-4.2-1.9-4.2-4.2 0-2.3 1.9-4.2 4.2-4.2z" fill="#fff"/>
</svg>
