<svg xmlns="http://www.w3.org/2000/svg" viewBox="0 0 128 128">
  <path d="M64.05 17.926c-.15 0-.3.024-.45.074-9.7 4.9-33.3 14.9-33.5 15-.3.2-.5.5-.6.8 0 .2-2.4 15.4.6 32.3 4 22.5 15.6 37.6 33.6 43.8.1.1.2.1.3.1h.4c17.8-6 29.4-21 33.5-43.7 3-16.9.7-32.3.7-32.5 0-.4-.3-.7-.6-.8-.3-.2-23.8-10.2-33.5-15-.15-.05-.3-.074-.45-.074zM64 20.1c9.1 4.6 29.1 13.1 32.6 14.6.8 6 6.4 60-32.6 73.2-39.3-13.7-33.4-67.2-32.6-73.2 3.5-1.5 23.5-10 32.6-14.6zm-27.7 26c-.3 0-.5.2-.5.5-.9 38.8 17.2 51.7 28.1 55.9h.4c10.8-4.1 28.7-16.7 28-55.8 0-.3-.2-.5-.5-.5l-55.5-.1zm.4 1.1l54.6.1c.6 37.8-16.7 50.2-27.2 54.2C53.4 97.3 36 84.7 36.7 47.2z" fill="#fff"/>
</svg>
