<svg xmlns="http://www.w3.org/2000/svg" width="508.624" height="46.963" viewBox="0 0 508.624 46.963"><path fill="#FFF" d="M26.045 2.432v10.87c-1.484 0-2.515.23-3.09.687-.577.458-.865 1.215-.865 2.27v13.535c0 .723.078 1.417.234 2.08.156.664.425 1.255.806 1.772.38.518.89.928 1.523 1.23.634.303 1.44.454 2.417.454 1.875 0 3.242-.492 4.102-1.478.86-.986 1.29-2.32 1.29-4V16.378c0-1.21-.363-2.026-1.085-2.446-.723-.42-1.72-.63-2.988-.63V2.433h19.306v10.87c-1.31 0-2.314.19-3.018.57s-1.055 1.177-1.055 2.388v13.975c0 1.797-.23 3.667-.688 5.61-.46 1.944-1.358 3.72-2.695 5.332-1.338 1.61-3.248 2.95-5.728 4.014-2.48 1.065-5.762 1.598-9.844 1.598-2.97 0-5.522-.27-7.66-.806s-3.952-1.245-5.436-2.124c-1.484-.88-2.666-1.88-3.545-3.003-.88-1.123-1.558-2.285-2.036-3.486-.478-1.202-.795-2.374-.95-3.517-.158-1.143-.235-2.192-.235-3.15V16.612c0-1.288-.37-2.162-1.113-2.62-.743-.46-1.974-.69-3.692-.69V2.433h26.045zM71.748 2.432v29.12c0 1.31.322 2.165.967 2.564.645.4 1.465.6 2.46.6h.792v10.87H51.3v-10.87h1.142c1.035 0 1.802-.326 2.3-.98.498-.654.747-1.362.747-2.124v-15c0-1.132-.357-1.967-1.07-2.505-.713-.537-1.538-.806-2.476-.806H51.3V2.433h20.448zM98.262 2.432v10.87h8.76V24.17h-8.76v8.994c0 1.29.18 2.344.542 3.164.36.82 1.108 1.23 2.24 1.23.626 0 1.13-.122 1.51-.366.38-.244.684-.566.908-.967.224-.4.366-.86.425-1.377.06-.517.088-1.08.088-1.685v-4.365h3.37v4.717c0 1.895-.202 3.662-.602 5.303-.4 1.64-1.084 3.057-2.05 4.248-.968 1.19-2.282 2.14-3.94 2.842-1.66.703-3.75 1.055-6.27 1.055-2.794 0-5.02-.342-6.68-1.025-1.66-.684-2.92-1.62-3.78-2.812-.86-1.19-1.42-2.607-1.685-4.248s-.396-3.428-.396-5.36V24.17h-4.6v-9.668c1.465 0 2.827-.317 4.087-.952 1.26-.634 2.343-1.513 3.25-2.637.91-1.123 1.612-2.407 2.11-3.853.498-1.445.747-2.988.747-4.63h10.725zM127.734 13.3l-.498 8.058h.498c.684-3.086 1.82-5.42 3.413-7.002 1.592-1.582 3.657-2.373 6.196-2.373 1.504 0 2.798.24 3.882.718 1.084.48 1.958 1.12 2.622 1.92.664.8 1.143 1.724 1.436 2.77.293 1.044.44 2.123.44 3.236 0 .918-.138 1.827-.41 2.725-.275.9-.714 1.71-1.32 2.433-.604.723-1.386 1.304-2.343 1.743-.957.44-2.14.66-3.545.66-1.953 0-3.49-.5-4.614-1.495-1.123-.995-1.684-2.196-1.684-3.603 0-.684.078-1.264.234-1.743.156-.48.317-.87.483-1.172.166-.303.278-.522.337-.66.06-.135-.01-.204-.205-.204-.41 0-.854.47-1.333 1.406-.48.938-.718 2.413-.718 4.424v6.71c0 1.035.18 1.77.542 2.21.36.44 1.06.66 2.095.66H135v10.87h-24.668v-10.87h1.73c.8 0 1.41-.26 1.83-.777.42-.516.63-1.137.63-1.86v-5.565c0-.918-.27-1.538-.806-1.86-.538-.322-1.147-.483-1.83-.483h-1.554v-10.87h17.402zM162.158 17.373c-.996 0-1.85.073-2.563.22-.713.146-1.323.318-1.83.513-.51.195-.93.415-1.26.66-.334.244-.626.463-.88.658l.293.293c.37-.195.776-.39 1.216-.586.44-.194 1-.292 1.685-.292 1.15 0 2.147.376 2.987 1.128.84.752 1.26 1.948 1.26 3.59 0 1.562-.64 2.816-1.92 3.764-1.278.948-2.992 1.42-5.14 1.42-2.052 0-3.688-.59-4.908-1.77-1.222-1.183-1.832-2.857-1.832-5.025 0-1.19.332-2.377.996-3.56.664-1.182 1.694-2.24 3.09-3.18 1.397-.937 3.175-1.708 5.333-2.313 2.158-.605 4.76-.908 7.808-.908 3.633 0 6.602.342 8.906 1.025 2.305.683 4.098 1.562 5.377 2.636 1.28 1.074 2.158 2.295 2.637 3.662.48 1.367.718 2.744.718 4.13v11.456c0 1.777.06 2.984.176 3.618.117.635.557.952 1.318.952.605 0 1.03-.288 1.274-.864.244-.576.366-1.567.366-2.974v-3.662h3.34v3.72c0 1.76-.146 3.316-.44 4.674-.292 1.358-.85 2.52-1.67 3.486s-1.933 1.7-3.34 2.197-3.203.748-5.39.748c-1.973 0-3.608-.21-4.907-.63-1.3-.42-2.33-.942-3.092-1.567-.762-.624-1.304-1.273-1.626-1.947s-.483-1.274-.483-1.802h-.47c-.117.802-.454 1.564-1.01 2.286-.558.723-1.33 1.362-2.315 1.92-.986.556-2.168 1.005-3.545 1.347-1.377.34-2.944.513-4.702.513-1.68 0-3.208-.16-4.585-.483s-2.55-.83-3.516-1.523-1.72-1.592-2.256-2.695c-.537-1.103-.805-2.417-.805-3.94 0-1.875.527-3.354 1.582-4.438s2.383-1.943 3.984-2.578c1.602-.635 3.345-1.153 5.23-1.554 1.885-.4 3.628-.883 5.23-1.45 1.6-.566 2.93-1.3 3.983-2.197 1.055-.9 1.582-2.17 1.582-3.81 0-1.465-.46-2.64-1.377-3.53-.917-.893-2.42-1.337-4.51-1.337zm5.89 12.686c-.43.624-.968 1.127-1.612 1.508s-1.265.752-1.86 1.113c-.596.363-1.113.792-1.553 1.29s-.66 1.167-.66 2.007c0 .645.177 1.226.528 1.743.353.518 1.036.776 2.052.776.918 0 1.665-.356 2.24-1.07.577-.712.865-1.713.865-3.002V30.06zM191.338 45.586v-10.87c1.718 0 2.95-.228 3.69-.687.743-.46 1.114-1.324 1.114-2.594V16.61c0-1.288-.37-2.162-1.113-2.62-.744-.46-1.974-.69-3.692-.69V2.433h40.547v16.582H221.63c0-1.21-.058-2.183-.175-2.915s-.337-1.31-.66-1.73c-.32-.42-.75-.703-1.288-.85-.538-.146-1.206-.22-2.007-.22h-4.072v8.467h9.346v5.156h-9.346v4.512c0 1.036.26 1.84.776 2.417.517.576 1.46.864 2.827.864h2.99v10.87h-28.682zM257.14 13.3v18.253c0 1.31.32 2.164.966 2.563.645.4 1.465.6 2.46.6h.792v10.87H236.69v-10.87h1.143c1.035 0 1.802-.326 2.3-.98.498-.654.747-1.362.747-2.124V27.48c0-1.132-.356-1.967-1.07-2.505-.712-.537-1.537-.806-2.475-.806h-.645V13.3h20.45zm-16.73-7.206c0-1.68.64-3.115 1.92-4.307C243.607.597 245.43 0 247.792 0c2.402 0 4.252.596 5.552 1.787 1.3 1.19 1.948 2.627 1.948 4.307 0 1.72-.65 3.17-1.948 4.35-1.3 1.183-3.15 1.773-5.552 1.773-2.363 0-4.185-.59-5.464-1.772-1.28-1.182-1.92-2.633-1.92-4.35zM291.357 26.865c0-.762-.093-1.372-.278-1.83-.187-.46-.42-.81-.704-1.056-.283-.245-.6-.406-.952-.484-.352-.078-.693-.117-1.025-.117-1.27 0-2.218.37-2.843 1.112-.625.743-.938 1.797-.938 3.164v4.19c0 1.035.18 1.77.54 2.21.362.44 1.06.66 2.096.66h1.582v10.87h-24.492v-10.87h1.73c.8 0 1.41-.258 1.83-.775.42-.516.63-1.137.63-1.86v-5.565c0-.918-.27-1.538-.806-1.86-.538-.322-1.147-.483-1.83-.483h-1.554v-10.87h17.402l-.615 8.056h.498c.43-3.007 1.75-5.322 3.956-6.943 2.207-1.62 5.205-2.432 8.994-2.432 2.676 0 4.853.38 6.533 1.143 1.68.762 2.983 1.724 3.91 2.886.928 1.162 1.558 2.422 1.89 3.78.333 1.357.5 2.63.5 3.822v8.232c0 1.036.18 1.772.54 2.212.362.44 1.06.66 2.096.66h1.58v10.868H291.36v-18.72zM330.147 31.26c.078 2.91.63 4.917 1.654 6.02 1.026 1.105 2.497 1.656 4.41 1.656.646 0 1.274-.092 1.89-.278.615-.186 1.188-.488 1.715-.908.527-.42.98-.977 1.36-1.67.382-.693.632-1.567.75-2.622h10.663c-.39 2.52-1.11 4.63-2.154 6.328s-2.387 3.072-4.027 4.116c-1.64 1.045-3.55 1.797-5.73 2.256-2.177.458-4.603.688-7.278.688-2.755 0-5.343-.352-7.765-1.055s-4.547-1.77-6.373-3.207-3.256-3.242-4.292-5.42-1.553-4.77-1.553-7.778c0-2.87.488-5.39 1.465-7.56.977-2.167 2.348-3.978 4.116-5.434 1.768-1.454 3.857-2.552 6.27-3.295 2.412-.742 5.064-1.113 7.955-1.113 3.555 0 6.61.47 9.17 1.406s4.648 2.246 6.27 3.926c1.62 1.68 2.812 3.702 3.574 6.064.762 2.363 1.123 4.99 1.084 7.88h-23.173zm4.336-11.367c-1.367 0-2.38.483-3.033 1.45s-1.088 2.563-1.303 4.79h8.584c-.116-1.914-.526-3.432-1.23-4.556-.703-1.123-1.708-1.684-3.017-1.684zM373.77 45.586v-10.87c1.72 0 2.95-.228 3.69-.687.743-.46 1.114-1.324 1.114-2.594V16.61c0-1.288-.37-2.162-1.113-2.62-.74-.46-1.972-.69-3.69-.69V2.433h26.865v10.87c-1.72 0-2.944.23-3.677.687-.732.458-1.1 1.332-1.1 2.62v14.825c0 1.27.367 2.134 1.1 2.593.732.46 1.958.688 3.677.688v10.87H373.77zM431.25 26.865c0-.762-.093-1.372-.278-1.83-.186-.46-.42-.81-.703-1.056-.284-.245-.602-.406-.953-.484-.352-.078-.693-.117-1.025-.117-1.27 0-2.217.37-2.842 1.112-.625.743-.938 1.797-.938 3.164v4.19c0 1.035.18 1.77.542 2.21s1.06.66 2.095.66h1.58v10.87h-24.49v-10.87h1.728c.8 0 1.41-.258 1.83-.775.42-.516.63-1.137.63-1.86v-5.565c0-.918-.268-1.538-.805-1.86s-1.147-.483-1.83-.483h-1.554v-10.87h17.4l-.614 8.056h.498c.43-3.007 1.748-5.322 3.955-6.943 2.206-1.62 5.204-2.432 8.993-2.432 2.676 0 4.854.38 6.533 1.143s2.983 1.724 3.91 2.886c.93 1.162 1.56 2.422 1.89 3.78.333 1.357.5 2.63.5 3.822v8.232c0 1.036.18 1.772.54 2.212s1.06.66 2.096.66h1.582v10.868H431.25v-18.72zM475.196 19.893c-1.68 0-2.97.713-3.867 2.14-.9 1.425-1.35 3.798-1.35 7.118 0 3.322.465 5.68 1.393 7.076.928 1.396 2.35 2.095 4.263 2.095.547 0 1.104-.087 1.67-.263s1.08-.435 1.538-.776c.46-.34.84-.78 1.143-1.317.303-.537.474-1.167.513-1.89h9.463c-.625 4.355-2.378 7.573-5.26 9.653s-6.986 3.12-12.318 3.12c-2.676 0-5.176-.352-7.5-1.055s-4.346-1.77-6.064-3.207-3.065-3.242-4.042-5.42c-.977-2.178-1.465-4.77-1.465-7.778 0-2.87.488-5.39 1.465-7.56s2.35-3.978 4.116-5.434c1.768-1.454 3.857-2.552 6.27-3.295 2.412-.742 5.063-1.113 7.954-1.113 3.066 0 5.654.38 7.764 1.143s3.813 1.714 5.112 2.856 2.227 2.374 2.783 3.692.835 2.554.835 3.706c0 .918-.132 1.816-.396 2.695s-.693 1.68-1.29 2.402c-.595.723-1.352 1.304-2.27 1.743s-2.04.66-3.37.66c-1.27 0-2.304-.18-3.104-.543-.8-.36-1.42-.81-1.86-1.348-.44-.537-.752-1.103-.938-1.7-.186-.595-.278-1.156-.278-1.684 0-1.19.283-2.14.85-2.842s1.22-1.19 1.963-1.464c-.43-.332-.865-.65-1.305-.952-.442-.3-1.247-.45-2.42-.45zM493.74 39.404c0-.996.2-1.953.602-2.87.4-.92.928-1.71 1.582-2.374.654-.664 1.436-1.196 2.344-1.597.908-.4 1.88-.6 2.915-.6.996 0 1.953.2 2.87.6.92.4 1.71.933 2.374 1.597.664.664 1.196 1.455 1.597 2.373.4.918.6 1.875.6 2.87 0 1.037-.2 2.003-.6 2.9-.4.9-.933 1.68-1.597 2.345-.664.664-1.455 1.196-2.373 1.597-.918.4-1.875.6-2.87.6-1.036 0-2.008-.2-2.916-.6-.908-.4-1.69-.933-2.344-1.597-.654-.664-1.182-1.445-1.582-2.344-.4-.897-.6-1.864-.6-2.9z"/></svg>